<?xml version="1.0" encoding="UTF-8"?>
<svg id="Ebene_3" data-name="Ebene 3" xmlns="http://www.w3.org/2000/svg" viewBox="0 0 32.03 32.09">
  <defs>
    <style>
      .cls-1 {
        fill: #1d1d1b;
      }

      .cls-2 {
        fill: none;
      }
    </style>
  </defs>
  <path class="cls-1" d="M4.02,14.03c0-6.62,5.38-12,12-12s12,5.38,12,12c0,3.59-1.59,6.97-4.36,9.26l-1.27-1.54c2.31-1.91,3.64-4.72,3.64-7.71,0-5.51-4.49-10-10-10S6.02,8.52,6.02,14.03c0,2.99,1.33,5.81,3.64,7.71l-1.27,1.54c-2.77-2.29-4.36-5.66-4.36-9.26h0Z"/>
  <polygon class="cls-1" points="9.02 16.03 10.44 17.44 15.02 12.86 15.02 30.03 17.02 30.03 17.02 12.86 21.61 17.44 23.02 16.03 16.02 9.03 9.02 16.03"/>
  <rect id="_Transparent_Rectangle_" data-name=" Transparent Rectangle " class="cls-2" x=".02" y=".03" width="32" height="32" transform="translate(32.05 32.06) rotate(-180)"/>
</svg>