<?xml version="1.0" encoding="UTF-8"?>
<svg id="Ebene_3" data-name="Ebene 3" xmlns="http://www.w3.org/2000/svg" viewBox="0 0 32.03 32.09">
  <defs>
    <style>
      .cls-1 {
        fill: #1d1d1b;
      }

      .cls-2 {
        fill: none;
      }
    </style>
  </defs>
  <path class="cls-1" d="M5.91,20.49c-1.22-1.91-1.89-4.14-1.89-6.46h0c0-6.62,5.38-12,12-12s12,5.38,12,12c0,2.34-1.91,6.51-1.91,6.51l-1.73-1.01s1.65-3.52,1.65-5.5c0-5.51-4.49-10-10-10S6.02,8.52,6.02,14.03c0,1.98.58,3.89,1.65,5.5"/>
  <polygon class="cls-1" points="9.02 23.03 10.44 21.62 15.02 26.2 15.02 9.03 17.02 9.03 17.02 26.2 21.61 21.62 23.02 23.03 16.02 30.03 9.02 23.03"/>
  <rect id="_Transparent_Rectangle_" data-name=" Transparent Rectangle " class="cls-2" x=".02" y=".03" width="32" height="32" transform="translate(32.05 32.06) rotate(-180)"/>
</svg>